<mxfile host="Electron" agent="Mozilla/5.0 (Windows NT 10.0; Win64; x64) AppleWebKit/537.36 (KHTML, like Gecko) draw.io/26.1.1 Chrome/132.0.6834.210 Electron/34.3.3 Safari/537.36" version="26.1.1">
  <diagram name="Page-1" id="1Y0if_NOpZgPzW81MMZV">
    <mxGraphModel dx="1098" dy="988" grid="1" gridSize="10" guides="1" tooltips="1" connect="1" arrows="1" fold="1" page="1" pageScale="1" pageWidth="850" pageHeight="1100" math="0" shadow="0">
      <root>
        <mxCell id="0" />
        <mxCell id="1" parent="0" />
        <mxCell id="h2gwHycqjwgFt5u-h71k-3" value="6. Share" style="edgeStyle=elbowEdgeStyle;rounded=0;orthogonalLoop=1;jettySize=auto;html=1;elbow=horizontal;curved=0;entryX=0;entryY=0;entryDx=0;entryDy=5;entryPerimeter=0;" edge="1" parent="1" target="h2gwHycqjwgFt5u-h71k-7">
          <mxGeometry relative="1" as="geometry">
            <mxPoint x="220.00034482758605" y="369.6555172413793" as="sourcePoint" />
            <mxPoint x="509.69" y="369.6555172413793" as="targetPoint" />
          </mxGeometry>
        </mxCell>
        <mxCell id="h2gwHycqjwgFt5u-h71k-4" value="User" style="shape=umlLifeline;perimeter=lifelinePerimeter;whiteSpace=wrap;html=1;container=1;dropTarget=0;collapsible=0;recursiveResize=0;outlineConnect=0;portConstraint=eastwest;newEdgeStyle={&quot;edgeStyle&quot;:&quot;elbowEdgeStyle&quot;,&quot;elbow&quot;:&quot;vertical&quot;,&quot;curved&quot;:0,&quot;rounded&quot;:0};" vertex="1" parent="1">
          <mxGeometry x="170" y="60" width="100" height="620" as="geometry" />
        </mxCell>
        <mxCell id="h2gwHycqjwgFt5u-h71k-5" value="DietDetailPage" style="shape=umlLifeline;perimeter=lifelinePerimeter;whiteSpace=wrap;html=1;container=1;dropTarget=0;collapsible=0;recursiveResize=0;outlineConnect=0;portConstraint=eastwest;newEdgeStyle={&quot;edgeStyle&quot;:&quot;elbowEdgeStyle&quot;,&quot;elbow&quot;:&quot;vertical&quot;,&quot;curved&quot;:0,&quot;rounded&quot;:0};" vertex="1" parent="1">
          <mxGeometry x="460" y="60" width="100" height="620" as="geometry" />
        </mxCell>
        <mxCell id="h2gwHycqjwgFt5u-h71k-6" value="" style="html=1;points=[[0,0,0,0,5],[0,1,0,0,-5],[1,0,0,0,5],[1,1,0,0,-5]];perimeter=orthogonalPerimeter;outlineConnect=0;targetShapes=umlLifeline;portConstraint=eastwest;newEdgeStyle={&quot;curved&quot;:0,&quot;rounded&quot;:0};" vertex="1" parent="h2gwHycqjwgFt5u-h71k-5">
          <mxGeometry x="45" y="190" width="10" height="50" as="geometry" />
        </mxCell>
        <mxCell id="h2gwHycqjwgFt5u-h71k-7" value="" style="html=1;points=[[0,0,0,0,5],[0,1,0,0,-5],[1,0,0,0,5],[1,1,0,0,-5]];perimeter=orthogonalPerimeter;outlineConnect=0;targetShapes=umlLifeline;portConstraint=eastwest;newEdgeStyle={&quot;curved&quot;:0,&quot;rounded&quot;:0};" vertex="1" parent="h2gwHycqjwgFt5u-h71k-5">
          <mxGeometry x="45" y="310" width="10" height="40" as="geometry" />
        </mxCell>
        <mxCell id="h2gwHycqjwgFt5u-h71k-8" value="" style="html=1;points=[[0,0,0,0,5],[0,1,0,0,-5],[1,0,0,0,5],[1,1,0,0,-5]];perimeter=orthogonalPerimeter;outlineConnect=0;targetShapes=umlLifeline;portConstraint=eastwest;newEdgeStyle={&quot;curved&quot;:0,&quot;rounded&quot;:0};" vertex="1" parent="h2gwHycqjwgFt5u-h71k-5">
          <mxGeometry x="45" y="390" width="10" height="40" as="geometry" />
        </mxCell>
        <mxCell id="h2gwHycqjwgFt5u-h71k-9" value="" style="html=1;points=[[0,0,0,0,5],[0,1,0,0,-5],[1,0,0,0,5],[1,1,0,0,-5]];perimeter=orthogonalPerimeter;outlineConnect=0;targetShapes=umlLifeline;portConstraint=eastwest;newEdgeStyle={&quot;curved&quot;:0,&quot;rounded&quot;:0};" vertex="1" parent="h2gwHycqjwgFt5u-h71k-5">
          <mxGeometry x="45" y="60" width="10" height="30" as="geometry" />
        </mxCell>
        <mxCell id="h2gwHycqjwgFt5u-h71k-13" value="4. Clicks to expand a field" style="edgeStyle=elbowEdgeStyle;rounded=0;orthogonalLoop=1;jettySize=auto;html=1;elbow=vertical;curved=0;entryX=0;entryY=0;entryDx=0;entryDy=5;entryPerimeter=0;" edge="1" parent="1" source="h2gwHycqjwgFt5u-h71k-4" target="h2gwHycqjwgFt5u-h71k-6">
          <mxGeometry x="0.0019" relative="1" as="geometry">
            <mxPoint as="offset" />
          </mxGeometry>
        </mxCell>
        <mxCell id="h2gwHycqjwgFt5u-h71k-14" value="9. Downloads text file to computer with details" style="edgeStyle=elbowEdgeStyle;rounded=0;orthogonalLoop=1;jettySize=auto;html=1;elbow=vertical;curved=0;dashed=1;dashPattern=8 8;" edge="1" parent="1" target="h2gwHycqjwgFt5u-h71k-4">
          <mxGeometry relative="1" as="geometry">
            <mxPoint x="509.4799999999998" y="489.9995238095237" as="sourcePoint" />
            <mxPoint x="-159.9961904761905" y="489.9995238095237" as="targetPoint" />
          </mxGeometry>
        </mxCell>
        <mxCell id="h2gwHycqjwgFt5u-h71k-17" value="5. Display Epanded Field" style="edgeStyle=elbowEdgeStyle;rounded=0;orthogonalLoop=1;jettySize=auto;html=1;elbow=vertical;curved=0;dashed=1;dashPattern=8 8;exitX=0;exitY=1;exitDx=0;exitDy=-5;exitPerimeter=0;" edge="1" parent="1" source="h2gwHycqjwgFt5u-h71k-6">
          <mxGeometry x="-0.0008" relative="1" as="geometry">
            <mxPoint x="509.5000000000002" y="300.17333333333346" as="sourcePoint" />
            <mxPoint x="220" y="297" as="targetPoint" />
            <mxPoint as="offset" />
          </mxGeometry>
        </mxCell>
        <mxCell id="h2gwHycqjwgFt5u-h71k-19" value="1. User enters page" style="edgeStyle=elbowEdgeStyle;rounded=0;orthogonalLoop=1;jettySize=auto;html=1;elbow=vertical;curved=0;entryX=0.51;entryY=0.313;entryDx=0;entryDy=0;entryPerimeter=0;" edge="1" parent="1">
          <mxGeometry x="0.0019" relative="1" as="geometry">
            <mxPoint x="220" y="120.16999999999999" as="sourcePoint" />
            <mxPoint x="511" y="120.16999999999999" as="targetPoint" />
            <mxPoint as="offset" />
          </mxGeometry>
        </mxCell>
        <mxCell id="h2gwHycqjwgFt5u-h71k-20" value="3. Display page with Diet Loaded" style="edgeStyle=elbowEdgeStyle;rounded=0;orthogonalLoop=1;jettySize=auto;html=1;elbow=vertical;curved=0;dashed=1;dashPattern=8 8;" edge="1" parent="1">
          <mxGeometry x="0.0017" relative="1" as="geometry">
            <mxPoint x="509.5000000000002" y="150.00333333333347" as="sourcePoint" />
            <mxPoint x="220" y="150.00000000000003" as="targetPoint" />
            <mxPoint as="offset" />
          </mxGeometry>
        </mxCell>
        <mxCell id="h2gwHycqjwgFt5u-h71k-28" value="7. Copies link to clipboard" style="edgeStyle=elbowEdgeStyle;rounded=0;orthogonalLoop=1;jettySize=auto;html=1;elbow=vertical;curved=0;dashed=1;dashPattern=8 8;exitX=0;exitY=1;exitDx=0;exitDy=-5;exitPerimeter=0;" edge="1" parent="1">
          <mxGeometry x="-0.0008" relative="1" as="geometry">
            <mxPoint x="505" y="400" as="sourcePoint" />
            <mxPoint x="220" y="402" as="targetPoint" />
            <mxPoint as="offset" />
          </mxGeometry>
        </mxCell>
        <mxCell id="h2gwHycqjwgFt5u-h71k-32" value="8. Click Export Page" style="edgeStyle=elbowEdgeStyle;rounded=0;orthogonalLoop=1;jettySize=auto;html=1;elbow=horizontal;curved=0;entryX=0;entryY=0;entryDx=0;entryDy=5;entryPerimeter=0;" edge="1" parent="1">
          <mxGeometry relative="1" as="geometry">
            <mxPoint x="220" y="460" as="sourcePoint" />
            <mxPoint x="507" y="460" as="targetPoint" />
          </mxGeometry>
        </mxCell>
        <mxCell id="h2gwHycqjwgFt5u-h71k-33" value="Database" style="shape=umlLifeline;perimeter=lifelinePerimeter;whiteSpace=wrap;html=1;container=1;dropTarget=0;collapsible=0;recursiveResize=0;outlineConnect=0;portConstraint=eastwest;newEdgeStyle={&quot;edgeStyle&quot;:&quot;elbowEdgeStyle&quot;,&quot;elbow&quot;:&quot;vertical&quot;,&quot;curved&quot;:0,&quot;rounded&quot;:0};" vertex="1" parent="1">
          <mxGeometry x="760" y="60" width="100" height="610" as="geometry" />
        </mxCell>
        <mxCell id="h2gwHycqjwgFt5u-h71k-34" value="2. Get Plan detail according to ID" style="edgeStyle=elbowEdgeStyle;rounded=0;orthogonalLoop=1;jettySize=auto;html=1;elbow=vertical;curved=0;entryX=0.51;entryY=0.313;entryDx=0;entryDy=0;entryPerimeter=0;" edge="1" parent="1">
          <mxGeometry x="0.0019" relative="1" as="geometry">
            <mxPoint x="519" y="140.17" as="sourcePoint" />
            <mxPoint x="810" y="140.17" as="targetPoint" />
            <mxPoint as="offset" />
          </mxGeometry>
        </mxCell>
      </root>
    </mxGraphModel>
  </diagram>
</mxfile>
